<?xml version="1.0" encoding="UTF-8"?>
<svg version="1.1" xmlns="http://www.w3.org/2000/svg" width="1200" height="1200">
<path d="M0 0 C396 0 792 0 1200 0 C1200 396 1200 792 1200 1200 C804 1200 408 1200 0 1200 C0 804 0 408 0 0 Z " fill="#6B2040" transform="translate(0,0)"/>
<path d="M0 0 C24.72998849 -0.37403145 49.45955224 -0.65603703 74.19180107 -0.82899475 C85.6760306 -0.91144382 97.15850123 -1.02380813 108.64160156 -1.20703125 C118.65235325 -1.36668536 128.66183121 -1.46977061 138.67382061 -1.50541592 C143.97424421 -1.52625012 149.27102471 -1.57506528 154.57027817 -1.69168091 C159.56361728 -1.80066965 164.55183189 -1.83372123 169.54624748 -1.8097229 C171.37419624 -1.81410909 173.20232395 -1.84574153 175.02924156 -1.9072876 C188.46031431 -2.33739499 188.46031431 -2.33739499 192.70898867 1.57286453 C195.81059979 5.4223802 198.0442752 9.63060268 200.10857797 14.10522079 C201.28169798 16.59876854 202.6936625 18.91462684 204.15234375 21.25 C205.08266197 22.83219845 206.01101131 24.41555605 206.9375 26 C208.04523362 27.88301214 209.15332986 29.76581099 210.26171875 31.6484375 C211.15189697 33.16195801 211.15189697 33.16195801 212.06005859 34.70605469 C215.77822902 41.01936396 219.5120976 47.32335734 223.25 53.625 C223.65491669 54.30771973 224.05983337 54.99043945 224.47702026 55.69384766 C230.77424199 66.30586998 237.15191771 76.86597163 243.57397461 87.40283203 C249.87128389 97.74570945 256.05757927 108.15330426 262.22387695 118.57470703 C265.74847515 124.53028382 269.27957561 130.4804753 272.8671875 136.3984375 C273.72026489 137.80706055 273.72026489 137.80706055 274.59057617 139.24414062 C275.62339965 140.94567033 276.65978521 142.64504515 277.70043945 144.34179688 C281 149.7804615 281 149.7804615 281 152 C283.85585976 151.99967313 283.85585976 151.99967313 287 151 C288.76375937 148.84260284 289.99950863 147.01166422 291.3203125 144.60546875 C291.700737 143.95129471 292.0811615 143.29712067 292.47311401 142.62312317 C293.70926469 140.48815837 294.91673788 138.33834928 296.125 136.1875 C296.97968337 134.70127157 297.83646791 133.21624955 298.6953125 131.73242188 C300.38808027 128.80363243 302.07162299 125.86988277 303.74707031 122.93115234 C306.42528752 118.24294832 309.19811577 113.61513614 312 109 C315.47491353 103.23237276 318.92367498 97.44960481 322.35546875 91.65625 C322.9390213 90.6712426 322.9390213 90.6712426 323.53436279 89.66633606 C323.93052795 88.99760971 324.32669312 88.32888336 324.73486328 87.63989258 C325.5523891 86.25991668 326.36993485 84.87995259 327.1875 83.5 C327.59434021 82.81328217 328.00118042 82.12656433 328.42034912 81.41903687 C334.09452464 71.84588056 339.82859788 62.31208377 345.625 52.8125 C353.59002029 39.75413771 361.33738887 26.57447344 369.02807617 13.35302734 C369.67881104 12.24652832 370.3295459 11.1400293 371 10 C371.28429336 9.18323917 371.56858671 8.36647835 371.86149502 7.52496719 C373.21138821 4.30780958 374.41283636 2.3674806 377 0 C383.07186113 -1.52810404 389.08035662 -1.2645596 395.30615234 -1.13525391 C397.19863739 -1.13243224 399.09113338 -1.13401832 400.98361206 -1.13967896 C406.11628497 -1.14254772 411.24661985 -1.08377074 416.37874937 -1.01393938 C421.74380344 -0.95141452 427.1089115 -0.94555129 432.47427368 -0.9336853 C442.63189017 -0.90260696 452.78843005 -0.82055081 462.9455725 -0.72019041 C474.5100309 -0.60840577 486.07454081 -0.55343152 497.63940501 -0.50323606 C521.42686684 -0.39871712 545.21337309 -0.22283192 569 0 C567.88603189 1.75946641 566.77089776 3.51819461 565.65527344 5.27661133 C565.03440857 6.25608231 564.4135437 7.23555328 563.77386475 8.2447052 C561.69415445 11.47506139 559.51060703 14.58111414 557.25 17.6875 C552.78255232 23.87213634 548.43754918 30.13367878 544.12890625 36.4296875 C539.42974036 43.29363767 534.71261995 50.14528008 530 57 C597.32 57 664.64 57 734 57 C734 93.3 734 129.6 734 167 C718.15097656 167.03738281 702.30195312 167.07476562 685.97265625 167.11328125 C675.94204849 167.14355111 665.91145236 167.1745704 655.88085938 167.20898438 C639.95402886 167.26348792 624.02723647 167.31490011 608.1003418 167.34643555 C596.50120376 167.36941605 584.90215041 167.40281485 573.30307955 167.44870156 C567.16199675 167.47263288 561.02099782 167.49136233 554.87986946 167.49761391 C549.09737767 167.50366505 543.31510047 167.52366647 537.53268814 167.55427551 C535.4127457 167.56305517 533.29277521 167.56677847 531.17281532 167.56500816 C528.27239854 167.56335114 525.37263261 167.5800916 522.4723053 167.60127258 C521.6386213 167.59642501 520.8049373 167.59157743 519.94599015 167.58658296 C513.06063479 167.66923819 506.98674313 169.11705324 501.125 172.8125 C496.89190931 177.17009335 495.7886163 180.89045518 495.5625 186.875 C495.75075636 193.77202849 497.44446558 198.37347852 502.25 203.3125 C509.57676988 207.80847243 515.85570386 208.43208787 524.26757812 208.36889648 C525.37136307 208.37266296 526.47514801 208.37642944 527.61238098 208.38031006 C530.00164442 208.38672682 532.3909334 208.38642731 534.78019714 208.38012505 C538.58495892 208.37096444 542.38923294 208.38130092 546.19396973 208.39674377 C555.65651044 208.43167728 565.11900621 208.43919669 574.581604 208.43664551 C582.56426161 208.43476548 590.54655389 208.44909072 598.52915955 208.48512459 C602.23548445 208.49578242 605.94127647 208.4839125 609.64758301 208.47129822 C649.3736522 208.53222443 685.75449091 218.7210394 714.7578125 246.65625 C739.9491133 272.87415553 747.70048656 309.36545523 747.14453125 344.62890625 C746.2063661 378.74608277 732.761234 412.14936301 708 436 C691.0475681 450.86582215 670.93409737 462.51374573 648.875 467.625 C648.05257812 467.82867188 647.23015625 468.03234375 646.3828125 468.2421875 C630.59664951 471.97346239 615.0289738 472.28714746 598.8996582 472.24291992 C596.59748882 472.24397466 594.2953197 472.24589517 591.99315166 472.24860382 C585.74064772 472.25338741 579.48821502 472.24569971 573.23571968 472.23561835 C567.24474116 472.22777804 561.25376625 472.22907104 555.2627842 472.22994814 C542.45172355 472.23139074 529.64069355 472.22104718 516.82964368 472.20529739 C505.75901836 472.19170065 494.68839971 472.18253433 483.61776733 472.17724609 C401.58057139 472.1367845 319.54578181 471.91811824 206 471 C206.00775137 470.12168644 206.01550274 469.24337288 206.023489 468.33844376 C206.20795316 446.88425084 206.3138451 425.4308942 206.33421898 403.97589493 C206.34593147 393.59987415 206.3834206 383.22518619 206.48339844 372.84960938 C206.57055844 363.79725953 206.6075148 354.74627142 206.58627188 345.6935041 C206.57673928 340.90741976 206.59092295 336.12426688 206.66541672 331.33869171 C207.36236595 302.6948532 207.36236595 302.6948532 192.72011185 278.8597641 C189.97572883 275.89257041 187.83060157 272.56213357 185.625 269.1875 C184.74237223 267.89392601 183.85724284 266.60205261 182.96875 265.3125 C182.26878906 264.29349609 182.26878906 264.29349609 181.5546875 263.25390625 C178.42767226 258.72051983 175.27383988 254.20573982 172.125 249.6875 C166.69067181 241.88784318 161.29469849 234.06389657 155.93847656 226.21044922 C150.93755425 218.88756021 145.87058035 211.61124243 140.80078125 204.3359375 C137.01583013 198.90281884 133.24374466 193.46158863 129.5 188 C125.02979626 181.47917357 120.51849274 174.98744488 116 168.5 C111.05106662 161.39454817 106.11871995 154.27868322 101.22265625 147.13671875 C97.17495879 141.23933165 93.08806284 135.36945335 89 129.5 C84.05106662 122.39454817 79.11871995 115.27868322 74.22265625 108.13671875 C70.17495879 102.23933165 66.08806284 96.36945335 62 90.5 C57.05106662 83.39454817 52.11871995 76.27868322 47.22265625 69.13671875 C43.17495879 63.23933165 39.08806284 57.36945335 35 51.5 C30.05886263 44.40574132 25.13101049 37.30327015 20.24682617 30.16967773 C17.44175529 26.07897136 14.61138063 22.00666394 11.76953125 17.94140625 C11.03347656 16.88759766 10.29742187 15.83378906 9.5390625 14.74804688 C8.07100433 12.64769347 6.60099569 10.54870182 5.12890625 8.45117188 C4.46375 7.49919922 3.79859375 6.54722656 3.11328125 5.56640625 C2.51298096 4.70990479 1.91268066 3.85340332 1.29418945 2.97094727 C0 1 0 1 0 0 Z " fill="#EFB7CA" transform="translate(216,290)"/>
<path d="M0 0 C24.72998849 -0.37403145 49.45955224 -0.65603703 74.19180107 -0.82899475 C85.6760306 -0.91144382 97.15850123 -1.02380813 108.64160156 -1.20703125 C118.65235325 -1.36668536 128.66183121 -1.46977061 138.67382061 -1.50541592 C143.97424421 -1.52625012 149.27102471 -1.57506528 154.57027817 -1.69168091 C159.56361728 -1.80066965 164.55183189 -1.83372123 169.54624748 -1.8097229 C171.37419624 -1.81410909 173.20232395 -1.84574153 175.02924156 -1.9072876 C188.46031431 -2.33739499 188.46031431 -2.33739499 192.70898867 1.57286453 C195.81059979 5.4223802 198.0442752 9.63060268 200.10857797 14.10522079 C201.28169798 16.59876854 202.6936625 18.91462684 204.15234375 21.25 C205.08266197 22.83219845 206.01101131 24.41555605 206.9375 26 C208.04523362 27.88301214 209.15332986 29.76581099 210.26171875 31.6484375 C211.15189697 33.16195801 211.15189697 33.16195801 212.06005859 34.70605469 C215.77822902 41.01936396 219.5120976 47.32335734 223.25 53.625 C223.65491669 54.30771973 224.05983337 54.99043945 224.47702026 55.69384766 C230.77424199 66.30586998 237.15191771 76.86597163 243.57397461 87.40283203 C249.87128389 97.74570945 256.05757927 108.15330426 262.22387695 118.57470703 C265.74847515 124.53028382 269.27957561 130.4804753 272.8671875 136.3984375 C273.72026489 137.80706055 273.72026489 137.80706055 274.59057617 139.24414062 C275.62339965 140.94567033 276.65978521 142.64504515 277.70043945 144.34179688 C281 149.7804615 281 149.7804615 281 152 C283.85585976 151.99967313 283.85585976 151.99967313 287 151 C288.76375937 148.84260284 289.99950863 147.01166422 291.3203125 144.60546875 C291.700737 143.95129471 292.0811615 143.29712067 292.47311401 142.62312317 C293.70926469 140.48815837 294.91673788 138.33834928 296.125 136.1875 C296.97968337 134.70127157 297.83646791 133.21624955 298.6953125 131.73242188 C300.38808027 128.80363243 302.07162299 125.86988277 303.74707031 122.93115234 C306.42528752 118.24294832 309.19811577 113.61513614 312 109 C315.47491353 103.23237276 318.92367498 97.44960481 322.35546875 91.65625 C322.9390213 90.6712426 322.9390213 90.6712426 323.53436279 89.66633606 C323.93052795 88.99760971 324.32669312 88.32888336 324.73486328 87.63989258 C325.5523891 86.25991668 326.36993485 84.87995259 327.1875 83.5 C327.59434021 82.81328217 328.00118042 82.12656433 328.42034912 81.41903687 C334.09452464 71.84588056 339.82859788 62.31208377 345.625 52.8125 C353.59002029 39.75413771 361.33738887 26.57447344 369.02807617 13.35302734 C369.67881104 12.24652832 370.3295459 11.1400293 371 10 C371.28429336 9.18323917 371.56858671 8.36647835 371.86149502 7.52496719 C373.21138821 4.30780958 374.41283636 2.3674806 377 0 C383.07186113 -1.52810404 389.08035662 -1.2645596 395.30615234 -1.13525391 C397.19863739 -1.13243224 399.09113338 -1.13401832 400.98361206 -1.13967896 C406.11628497 -1.14254772 411.24661985 -1.08377074 416.37874937 -1.01393938 C421.74380344 -0.95141452 427.1089115 -0.94555129 432.47427368 -0.9336853 C442.63189017 -0.90260696 452.78843005 -0.82055081 462.9455725 -0.72019041 C474.5100309 -0.60840577 486.07454081 -0.55343152 497.63940501 -0.50323606 C521.42686684 -0.39871712 545.21337309 -0.22283192 569 0 C567.88603189 1.75946641 566.77089776 3.51819461 565.65527344 5.27661133 C565.03440857 6.25608231 564.4135437 7.23555328 563.77386475 8.2447052 C561.69415445 11.47506139 559.51060703 14.58111414 557.25 17.6875 C553.59456675 22.7440885 550.01994849 27.84820513 546.5 33 C542.99559648 38.12675544 539.4408219 43.21019796 535.8125 48.25 C532.92512171 52.2650692 530.09789707 56.30846789 527.375 60.4375 C522.72834343 67.47817435 517.88586528 74.38085639 513.06054688 81.29980469 C509.14484668 86.9152169 505.2433224 92.53935524 501.375 98.1875 C496.69280826 105.02015615 491.94292515 111.80431107 487.18652344 118.58544922 C483.2006549 124.27255002 479.24961122 129.98198632 475.32421875 135.7109375 C471.24387055 141.6599669 467.12321872 147.58062756 463 153.5 C458.48147544 159.98742299 453.97023657 166.4791962 449.5 173 C444.33801536 180.5298675 439.12004103 188.02038802 433.90234375 195.51171875 C430.08428476 200.9961033 426.27847717 206.48827642 422.5 212 C417.33950883 219.52768896 412.12325638 227.01619282 406.90673828 234.50512695 C403.04404761 240.05321355 399.19612863 245.61071767 395.375 251.1875 C390.70368023 258.00395755 385.96637956 264.77312267 381.21948242 271.53710938 C376.86776259 277.74369025 372.55896633 283.97841895 368.28710938 290.24023438 C365.10285596 294.89714404 365.10285596 294.89714404 364 296 C363.89065121 298.23994187 363.85306707 300.48338644 363.84178162 302.72596741 C363.83684364 303.43735994 363.83190566 304.14875248 363.82681805 304.88170236 C363.81136904 307.28319298 363.80306253 309.68465671 363.79467773 312.08618164 C363.78510501 313.80059549 363.7750953 315.51500696 363.76467896 317.22941589 C363.73755809 321.89861402 363.71658754 326.56782233 363.69667697 331.23705602 C363.67486155 336.11113561 363.6474512 340.98518357 363.62062073 345.85923767 C363.57063355 355.09567136 363.52571715 364.33212255 363.48259836 373.56859058 C363.4240632 386.04508857 363.35774409 398.52154499 363.29184818 410.99800587 C363.18817928 430.66530927 363.0949528 450.33264812 363 470 C311.19 470 259.38 470 206 470 C206.09023438 457.74359375 206.18046875 445.4871875 206.2734375 432.859375 C206.29938535 425.06632054 206.32175866 417.27352319 206.328125 409.48046875 C206.33887483 397.12718304 206.36366518 384.77513793 206.48339844 372.42236328 C206.57056271 363.4227493 206.60751373 354.42450508 206.58627188 345.42447114 C206.57673985 340.6663257 206.59091659 335.91112899 206.66541672 331.15349579 C207.33671434 302.61350793 207.33671434 302.61350793 192.72011185 278.86328888 C189.97817371 275.8931199 187.8313706 272.56241207 185.625 269.1875 C184.74235644 267.89393679 183.85722534 266.60206467 182.96875 265.3125 C182.26878906 264.29349609 182.26878906 264.29349609 181.5546875 263.25390625 C178.42767226 258.72051983 175.27383988 254.20573982 172.125 249.6875 C166.69067181 241.88784318 161.29469849 234.06389657 155.93847656 226.21044922 C150.93755425 218.88756021 145.87058035 211.61124243 140.80078125 204.3359375 C137.01583013 198.90281884 133.24374466 193.46158863 129.5 188 C125.02979626 181.47917357 120.51849274 174.98744488 116 168.5 C111.05106662 161.39454817 106.11871995 154.27868322 101.22265625 147.13671875 C97.17495879 141.23933165 93.08806284 135.36945335 89 129.5 C84.05106662 122.39454817 79.11871995 115.27868322 74.22265625 108.13671875 C70.17495879 102.23933165 66.08806284 96.36945335 62 90.5 C57.05106662 83.39454817 52.11871995 76.27868322 47.22265625 69.13671875 C43.17495879 63.23933165 39.08806284 57.36945335 35 51.5 C30.05886263 44.40574132 25.13101049 37.30327015 20.24682617 30.16967773 C17.44175529 26.07897136 14.61138063 22.00666394 11.76953125 17.94140625 C11.03347656 16.88759766 10.29742187 15.83378906 9.5390625 14.74804688 C8.07100433 12.64769347 6.60099569 10.54870182 5.12890625 8.45117188 C4.46375 7.49919922 3.79859375 6.54722656 3.11328125 5.56640625 C2.51298096 4.70990479 1.91268066 3.85340332 1.29418945 2.97094727 C0 1 0 1 0 0 Z " fill="#FCF1F4" transform="translate(216,290)"/>
<path d="M0 0 C2.8664282 2.82262879 5.6165115 5.65688273 8.1875 8.75 C27.26761015 30.57338778 53.16877724 40.72596547 81 46 C81.80992401 46.17465286 82.61984802 46.34930573 83.45431519 46.5292511 C88.56718264 47.20806968 93.62970178 47.12714973 98.78173828 47.11010742 C101.22958375 47.11065 103.67742921 47.111237 106.12527466 47.11186218 C107.41934361 47.11043402 108.71341255 47.10900585 110.04669571 47.10753441 C114.10830625 47.10388426 118.16982461 47.11307786 122.23141479 47.12532043 C122.91890875 47.12734236 123.6064027 47.12936429 124.31472981 47.13144749 C125.72023402 47.13561589 127.12573813 47.13981864 128.53124213 47.14405501 C137.97856524 47.17211861 147.42568651 47.19236628 156.87304688 47.17504883 C163.25683057 47.16344322 169.64019731 47.17322229 176.02390659 47.20710641 C179.39469855 47.22416167 182.76473849 47.23070298 186.13553238 47.210989 C189.90496973 47.19401781 193.67256385 47.2143814 197.44189453 47.24291992 C198.53946579 47.22912796 199.63703705 47.215336 200.76786804 47.2011261 C209.37053181 47.32666392 217.58630302 49.69199441 223.89821053 55.85275555 C228.27311725 61.38614122 227.76086118 68.31468045 227 75 C225.96074917 80.13187576 223.063336 83.30037076 219.20703125 86.640625 C212.73528491 90.62676257 206.87644864 91.43648931 199.45812988 91.36076355 C198.52841165 91.36332682 197.59869342 91.3658901 196.64080191 91.36853105 C193.54225618 91.37345125 190.44420356 91.35700503 187.34570312 91.34057617 C185.11795056 91.33972952 182.89019715 91.34020579 180.66244507 91.34190369 C174.62584763 91.34276357 168.58942944 91.32513872 162.55287361 91.30418181 C156.24013302 91.28541399 149.92738821 91.28366448 143.61462402 91.28010559 C133.02267417 91.27184403 122.43078297 91.25311194 111.83886719 91.22631836 C100.93196947 91.19875678 90.0250896 91.17753349 79.11816406 91.16479492 C78.10872524 91.16361267 78.10872524 91.16361267 77.07889372 91.16240653 C73.7026588 91.15849125 70.32642376 91.15470016 66.95018864 91.15097082 C38.96673646 91.11990012 10.98339594 91.06461071 -17 91 C-17 114.43 -17 137.86 -17 162 C-17.33 162 -17.66 162 -18 162 C-18.18726641 144.32754774 -18.32814211 126.65540714 -18.41449738 108.98218822 C-18.45566787 100.77530342 -18.51175036 92.56903675 -18.60351562 84.36254883 C-18.68350356 77.20585758 -18.73492437 70.04961417 -18.75270796 62.8924883 C-18.76309638 59.10605187 -18.78733355 55.32089607 -18.84584045 51.53487206 C-18.90058253 47.96317055 -18.91680697 44.39326346 -18.90486145 40.82118225 C-18.90807499 38.90149396 -18.95089931 36.98199645 -18.99536133 35.06282043 C-18.90817818 25.80440078 -15.96695518 20.90659289 -10 14 C-8.99491844 12.63234921 -8.00163364 11.2557658 -7.03125 9.86328125 C-6.39316406 8.96899414 -6.39316406 8.96899414 -5.7421875 8.05664062 C-5.12730469 7.19329102 -5.12730469 7.19329102 -4.5 6.3125 C-3.83871094 5.3853418 -3.83871094 5.3853418 -3.1640625 4.43945312 C-2.10891999 2.95995982 -1.05438743 1.48003153 0 0 Z " fill="#6B2040" transform="translate(597,561)"/>
<path d="M0 0 C3.9790243 -0.08802152 7.95779388 -0.14073233 11.9375 -0.1875 C13.05447266 -0.21263672 14.17144531 -0.23777344 15.32226562 -0.26367188 C21.94141652 -0.32190487 28.00856821 -0.07453955 34 3 C37.38163164 6.46617244 38.89662763 8.80088052 39.3125 13.625 C39.2067894 18.47887858 37.99209557 22.16092158 35 26 C32.78100586 27.46606445 32.78100586 27.46606445 30.33984375 28.73828125 C29.52765381 29.16794189 28.71546387 29.59760254 27.87866211 30.0402832 C27.25870361 30.35698975 26.63874512 30.67369629 26 31 C27.90516027 33.94511253 29.82606816 36.87962251 31.75 39.8125 C32.28882813 40.64587891 32.82765625 41.47925781 33.3828125 42.33789062 C33.91132812 43.14033203 34.43984375 43.94277344 34.984375 44.76953125 C35.46616211 45.50792236 35.94794922 46.24631348 36.44433594 47.00708008 C38.90784052 50.16301038 41.21091197 51.73697066 45 53 C45 53.99 45 54.98 45 56 C41.200933 56.5564637 37.7872703 56.70914966 34 56 C29.67476314 52.76249597 27.40315499 47.71627493 24.78515625 43.09765625 C24.39602051 42.42226807 24.00688477 41.74687988 23.60595703 41.05102539 C22.83768889 39.70246278 22.09169808 38.34091895 21.37060547 36.96655273 C20.21596211 34.79442743 20.21596211 34.79442743 18 32 C16.02 31.67 14.04 31.34 12 31 C12 38.26 12 45.52 12 53 C13.65 53 15.3 53 17 53 C17 53.99 17 54.98 17 56 C11.39 56 5.78 56 0 56 C0 55.01 0 54.02 0 53 C1.98 52.505 1.98 52.505 4 52 C4.33 35.83 4.66 19.66 5 3 C3.35 3 1.7 3 0 3 C0 2.01 0 1.02 0 0 Z " fill="#F8ECEF" transform="translate(587,801)"/>
<path d="M0 0 C3 1 3 1 4.04411316 2.81948853 C4.51377251 4.01026505 4.51377251 4.01026505 4.99291992 5.22509766 C5.35306686 6.12338287 5.71321381 7.02166809 6.08427429 7.94717407 C6.46251846 8.92624725 6.84076263 9.90532043 7.23046875 10.9140625 C7.62575272 11.9170639 8.02103668 12.92006531 8.42829895 13.95346069 C9.26337394 16.08153403 10.09269701 18.21187193 10.91674805 20.34423828 C12.17672206 23.59717407 13.46095199 26.83974624 14.74804688 30.08203125 C15.55617642 32.15046057 16.36286387 34.219454 17.16796875 36.2890625 C17.55228561 37.2559903 17.93660248 38.22291809 18.33256531 39.21914673 C20.31062432 44.39257555 21.46915483 48.45526896 21 54 C22.98 54 24.96 54 27 54 C27 54.99 27 55.98 27 57 C21.06 57 15.12 57 9 57 C9 56.34 9 55.68 9 55 C10.98 54.505 10.98 54.505 13 54 C12.68991116 52.39536551 12.37683713 50.79130769 12.0625 49.1875 C11.88847656 48.29417969 11.71445312 47.40085937 11.53515625 46.48046875 C11.02258847 43.88602829 11.02258847 43.88602829 10 41 C3.07 40.67 -3.86 40.34 -11 40 C-11.66 42.97 -12.32 45.94 -13 49 C-13.61896629 50.68496378 -14.26117922 52.36403971 -15 54 C-13.02 54 -11.04 54 -9 54 C-9 54.99 -9 55.98 -9 57 C-13.95 57 -18.9 57 -24 57 C-24 56.01 -24 55.02 -24 54 C-23.37423569 53.90470505 -22.74847137 53.8094101 -22.10374451 53.71122742 C-21.06239098 53.35916985 -21.06239098 53.35916985 -20 53 C-18.69397153 50.3408807 -17.68335145 47.86593419 -16.72265625 45.08203125 C-16.42942978 44.27319992 -16.13620331 43.46436859 -15.83409119 42.63102722 C-14.89511466 40.02999343 -13.97860886 37.42166471 -13.0625 34.8125 C-12.45003191 33.10429202 -11.83611481 31.39660283 -11.22070312 29.68945312 C-9.19772999 24.06234101 -7.20333378 18.42530843 -5.22137451 12.78363037 C-4.74166433 11.41819203 -4.26099004 10.05309185 -3.77915955 8.68840027 C-3.16467537 6.94767761 -2.55375859 5.20569678 -1.94311523 3.46362305 C-1 1 -1 1 0 0 Z " fill="#F6E9ED" transform="translate(720,800)"/>
<path d="M0 0 C0.99 0 1.98 0 3 0 C5.22398547 5.83485759 7.44769044 11.66982197 9.67114258 17.50488281 C10.42660048 19.48733363 11.18213324 21.46975593 11.93774414 23.45214844 C13.02770649 26.31177279 14.1173941 29.17150172 15.20703125 32.03125 C15.54152786 32.90865845 15.87602448 33.78606689 16.22065735 34.69006348 C16.85275846 36.34931025 17.48288758 38.00931003 18.11074829 39.67016602 C18.69614458 41.20390068 19.29318663 42.73324906 19.90267944 44.25756836 C21.28854725 47.77127877 22 50.16756278 22 54 C23.65 54 25.3 54 27 54 C27 54.99 27 55.98 27 57 C21.06 57 15.12 57 9 57 C9 56.34 9 55.68 9 55 C10.32 54.34 11.64 53.68 13 53 C12.391409 48.65292141 11.72184 44.33103998 11 40 C0.605 40.495 0.605 40.495 -10 41 C-10.639375 42.77375 -11.27875 44.5475 -11.9375 46.375 C-13.875 51.75 -13.875 51.75 -15 54 C-13.02 54 -11.04 54 -9 54 C-9 54.99 -9 55.98 -9 57 C-13.62 57 -18.24 57 -23 57 C-23 56.01 -23 55.02 -23 54 C-21.515 53.505 -21.515 53.505 -20 53 C-18.88374922 50.71009126 -17.98834281 48.51301539 -17.125 46.125 C-16.84325928 45.37428223 -16.56151855 44.62356445 -16.27124023 43.85009766 C-15.59361234 42.03812309 -14.92193661 40.22391758 -14.25439453 38.40820312 C-12.73236816 34.27284147 -11.19240572 30.14429615 -9.65234375 26.015625 C-6.42187983 17.34855638 -3.20757081 8.67556373 0 0 Z " fill="#F7E9ED" transform="translate(829,800)"/>
<path d="M0 0 C0.99 0 1.98 0 3 0 C5.22398547 5.83485759 7.44769044 11.66982197 9.67114258 17.50488281 C10.42660048 19.48733363 11.18213324 21.46975593 11.93774414 23.45214844 C13.02770649 26.31177279 14.1173941 29.17150172 15.20703125 32.03125 C15.54152786 32.90865845 15.87602448 33.78606689 16.22065735 34.69006348 C16.85275846 36.34931025 17.48288758 38.00931003 18.11074829 39.67016602 C18.69614458 41.20390068 19.29318663 42.73324906 19.90267944 44.25756836 C21.28854725 47.77127877 22 50.16756278 22 54 C23.65 54 25.3 54 27 54 C27 54.99 27 55.98 27 57 C21.06 57 15.12 57 9 57 C9 56.34 9 55.68 9 55 C10.32 54.34 11.64 53.68 13 53 C12.391409 48.65292141 11.72184 44.33103998 11 40 C0.605 40.495 0.605 40.495 -10 41 C-10.639375 42.77375 -11.27875 44.5475 -11.9375 46.375 C-13.875 51.75 -13.875 51.75 -15 54 C-13.02 54 -11.04 54 -9 54 C-9 54.99 -9 55.98 -9 57 C-13.62 57 -18.24 57 -23 57 C-23 56.01 -23 55.02 -23 54 C-21.515 53.505 -21.515 53.505 -20 53 C-18.88374922 50.71009126 -17.98834281 48.51301539 -17.125 46.125 C-16.84325928 45.37428223 -16.56151855 44.62356445 -16.27124023 43.85009766 C-15.59361234 42.03812309 -14.92193661 40.22391758 -14.25439453 38.40820312 C-12.73236816 34.27284147 -11.19240572 30.14429615 -9.65234375 26.015625 C-6.42187983 17.34855638 -3.20757081 8.67556373 0 0 Z " fill="#F7E9ED" transform="translate(485,800)"/>
<path d="M0 0 C3.50305357 -0.64605496 6.50566876 -0.76249135 10 0 C12.86637033 2.28736352 14.73108813 5.14522723 16.75683594 8.18017578 C18.20304918 10.29723657 19.72362594 12.34814592 21.2578125 14.40234375 C28.30625324 23.84133289 35.15151603 33.41212245 42 43 C42.33 29.8 42.66 16.6 43 3 C41.35 3 39.7 3 38 3 C38 2.01 38 1.02 38 0 C42.95 0 47.9 0 53 0 C53 0.66 53 1.32 53 2 C52.18958252 2.30010986 51.37916504 2.60021973 50.54418945 2.90942383 C47.82114618 4.70617753 47.82114618 4.70617753 47.51425171 7.24008179 C47.32212257 10.31782792 47.28194446 13.3653963 47.29296875 16.44921875 C47.27784744 17.5769722 47.26272614 18.70472565 47.24714661 19.86665344 C47.20410901 23.47380314 47.19541566 27.08011862 47.1875 30.6875 C47.16436835 33.13088181 47.13900582 35.57424359 47.11132812 38.01757812 C47.04831709 44.01172651 47.01351038 50.00554678 47 56 C42.50427554 55.27453287 41.05516097 54.43952221 38.328125 50.73046875 C37.33800415 49.40559448 37.33800415 49.40559448 36.32788086 48.05395508 C35.64218018 47.1080249 34.95647949 46.16209473 34.25 45.1875 C33.1837439 43.7502356 33.1837439 43.7502356 32.09594727 42.28393555 C30.686927 40.3831011 29.28321798 38.47831633 27.88525391 36.56933594 C25.60219821 33.45785211 23.27231561 30.38526252 20.9375 27.3125 C17.15110566 22.2933261 13.6147156 17.16387942 10 12 C9.67 25.2 9.34 38.4 9 52 C10.98 52 12.96 52 15 52 C15 52.99 15 53.98 15 55 C10.05 55 5.1 55 0 55 C0.33 54.01 0.66 53.02 1 52 C2.485 51.505 2.485 51.505 4 51 C5.17559215 48.6488157 5.15516463 47.17282086 5.20532227 44.55029297 C5.22526749 43.62948944 5.24521271 42.70868591 5.26576233 41.75997925 C5.29083107 40.26617233 5.29083107 40.26617233 5.31640625 38.7421875 C5.33718735 37.72399933 5.35796844 36.70581116 5.37937927 35.6567688 C5.44489466 32.39624945 5.50376902 29.13564794 5.5625 25.875 C5.60568332 23.66796017 5.64929755 21.46092872 5.69335938 19.25390625 C5.80057805 13.83602499 5.90234074 8.41806154 6 3 C4.02 3 2.04 3 0 3 C0 2.01 0 1.02 0 0 Z " fill="#F6E8ED" transform="translate(750,802)"/>
<path d="M0 0 C0 -0.66 0 -1.32 0 -2 C1.32 -2 2.64 -2 4 -2 C4 3.61 4 9.22 4 15 C3.01 15 2.02 15 1 15 C0.82984375 14.39671875 0.6596875 13.7934375 0.484375 13.171875 C-0.93052305 8.50572187 -2.00855951 5.09014748 -6 2 C-9.46822926 0.26588537 -13.2079795 0.54199397 -17 1 C-19.75 2.25 -19.75 2.25 -21 5 C-21.66826031 8.16980111 -21.97478656 10.89221273 -21 14 C-16.13620308 18.87138474 -10.33492454 21.56497544 -4.18945312 24.51757812 C0.77510858 27.01533179 3.92403603 29.31424165 7 34 C8.15214236 39.09518858 7.57576519 43.68053811 5.5 48.4375 C0.76404511 53.29185376 -3.69830606 55.22052502 -10.5 55.4375 C-15.55217219 55.26134337 -19.41456258 54.07642449 -24 52 C-24.33 52.66 -24.66 53.32 -25 54 C-26.32 54 -27.64 54 -29 54 C-29 48.39 -29 42.78 -29 37 C-28.01 37 -27.02 37 -26 37 C-25.84144531 37.60328125 -25.68289063 38.2065625 -25.51953125 38.828125 C-24.00807477 44.00548973 -22.82894656 47.10263207 -18 50 C-13.14092711 51.61969096 -9.353558 51.57651544 -4.625 49.5625 C-2.15747876 48.23945813 -2.15747876 48.23945813 -1 47 C-0.64494705 44.80951984 -0.64494705 44.80951984 -0.5625 42.25 C-0.47162109 40.95835937 -0.47162109 40.95835937 -0.37890625 39.640625 C-1.29319996 35.75343915 -3.80191564 34.08831278 -7 32 C-9.4302737 30.62199264 -11.92459611 29.40628223 -14.4375 28.1875 C-20.34468826 25.14333139 -25.93816921 22.20304238 -29 16 C-30.10275726 11.56803251 -30.09079202 7.89233247 -27.77734375 3.87890625 C-20.14964565 -5.50452799 -10.41143895 -4.22493175 0 0 Z " fill="#F6E8EC" transform="translate(686,803)"/>
<path d="M0 0 C0 -0.66 0 -1.32 0 -2 C1.32 -2 2.64 -2 4 -2 C4 3.61 4 9.22 4 15 C3.01 15 2.02 15 1 15 C0.82984375 14.39671875 0.6596875 13.7934375 0.484375 13.171875 C-0.93052305 8.50572187 -2.00855951 5.09014748 -6 2 C-9.46822926 0.26588537 -13.2079795 0.54199397 -17 1 C-19.75 2.25 -19.75 2.25 -21 5 C-21.66826031 8.16980111 -21.97478656 10.89221273 -21 14 C-16.13620308 18.87138474 -10.33492454 21.56497544 -4.18945312 24.51757812 C0.77510858 27.01533179 3.92403603 29.31424165 7 34 C8.15214236 39.09518858 7.57576519 43.68053811 5.5 48.4375 C0.76404511 53.29185376 -3.69830606 55.22052502 -10.5 55.4375 C-15.55217219 55.26134337 -19.41456258 54.07642449 -24 52 C-24.33 52.66 -24.66 53.32 -25 54 C-26.32 54 -27.64 54 -29 54 C-29 48.39 -29 42.78 -29 37 C-28.01 37 -27.02 37 -26 37 C-25.84144531 37.60328125 -25.68289063 38.2065625 -25.51953125 38.828125 C-24.00807477 44.00548973 -22.82894656 47.10263207 -18 50 C-13.14092711 51.61969096 -9.353558 51.57651544 -4.625 49.5625 C-2.15747876 48.23945813 -2.15747876 48.23945813 -1 47 C-0.64494705 44.80951984 -0.64494705 44.80951984 -0.5625 42.25 C-0.47162109 40.95835937 -0.47162109 40.95835937 -0.37890625 39.640625 C-1.29319996 35.75343915 -3.80191564 34.08831278 -7 32 C-9.4302737 30.62199264 -11.92459611 29.40628223 -14.4375 28.1875 C-20.34468826 25.14333139 -25.93816921 22.20304238 -29 16 C-30.10275726 11.56803251 -30.09079202 7.89233247 -27.77734375 3.87890625 C-20.14964565 -5.50452799 -10.41143895 -4.22493175 0 0 Z " fill="#F6E8EC" transform="translate(545,803)"/>
<path d="M0 0 C6.93 0 13.86 0 21 0 C21 0.99 21 1.98 21 3 C19.35 3.33 17.7 3.66 16 4 C15.11529202 10.29349084 18.08861709 13.92975205 21.5 18.875 C22.02464844 19.65875 22.54929687 20.4425 23.08984375 21.25 C24.38119411 23.175286 25.68458031 25.09111484 27 27 C29.14255963 24.26667107 30.87840312 21.53241997 32.48046875 18.453125 C33.14272461 17.18662109 33.14272461 17.18662109 33.81835938 15.89453125 C34.27017578 15.02183594 34.72199219 14.14914062 35.1875 13.25 C35.88262695 11.91775391 35.88262695 11.91775391 36.59179688 10.55859375 C37.73105728 8.37403255 38.86700223 6.18781392 40 4 C37.525 3.505 37.525 3.505 35 3 C35 2.01 35 1.02 35 0 C40.28 0 45.56 0 51 0 C51 0.99 51 1.98 51 3 C49.700625 3.4640625 49.700625 3.4640625 48.375 3.9375 C43.65900228 6.81949861 41.76359044 10.30254958 39 15 C38.30003906 16.04027344 37.60007812 17.08054687 36.87890625 18.15234375 C30.00375029 28.93501733 29.7522474 39.4454811 30 52 C31.98 52 33.96 52 36 52 C36 52.99 36 53.98 36 55 C30.06 55 24.12 55 18 55 C18 54.01 18 53.02 18 52 C19.32 51.34 20.64 50.68 22 50 C24.28767544 35.08122769 18.95279815 26.38697088 10.53808594 14.35107422 C9.06819062 12.10423423 7.89091851 9.86842165 6.75 7.44140625 C5.38366594 3.78518222 5.38366594 3.78518222 2.25 3 C1.5075 3 0.765 3 0 3 C0 2.01 0 1.02 0 0 Z " fill="#F7EAEE" transform="translate(414,802)"/>
<path d="M0 0 C4.60353655 0.09637033 7.20178509 1.34603606 10.75 4.375 C13.5916328 8.63744919 13.25403317 12.37467088 12.75 17.375 C11.41028209 20.87315233 10.23161448 22.03434586 7.1875 24.1875 C3.9073025 25.32065914 1.93869326 25.5020083 -1.46484375 25.44921875 C-2.36195068 25.43850342 -3.25905762 25.42778809 -4.18334961 25.41674805 C-4.86534424 25.40297119 -5.54733887 25.38919434 -6.25 25.375 C-6.30786668 21.58339703 -6.34355054 17.79190689 -6.375 14 C-6.39175781 12.91976562 -6.40851562 11.83953125 -6.42578125 10.7265625 C-6.43222656 9.6953125 -6.43867187 8.6640625 -6.4453125 7.6015625 C-6.45578613 6.64846191 -6.46625977 5.69536133 -6.47705078 4.71337891 C-6.06138153 0.43243263 -3.80353877 0.06468603 0 0 Z " fill="#6D2443" transform="translate(605.25,803.625)"/>
<path d="M0 0 C5.94 0 11.88 0 18 0 C18 0.66 18 1.32 18 2 C16.78437378 2.47723511 16.78437378 2.47723511 15.54418945 2.96411133 C12.84466842 4.6939967 12.84466842 4.6939967 12.51425171 7.08480835 C12.32244752 9.92331481 12.28191915 12.72915302 12.29296875 15.57421875 C12.27784744 16.61318802 12.26272614 17.65215729 12.24714661 18.72261047 C12.20412286 22.04445856 12.19541719 25.36540055 12.1875 28.6875 C12.1643672 30.93817538 12.13900443 33.18882903 12.11132812 35.43945312 C12.04833115 40.95964386 12.01351325 46.47947841 12 52 C13.98 52 15.96 52 18 52 C18 52.99 18 53.98 18 55 C12.06 55 6.12 55 0 55 C0 54.34 0 53.68 0 53 C0.639375 52.71125 1.27875 52.4225 1.9375 52.125 C4.15206079 51.17176549 4.15206079 51.17176549 5 49 C5.11786691 47.51987176 5.17692938 46.03483534 5.20532227 44.55029297 C5.22526749 43.62948944 5.24521271 42.70868591 5.26576233 41.75997925 C5.29083107 40.26617233 5.29083107 40.26617233 5.31640625 38.7421875 C5.33718735 37.72399933 5.35796844 36.70581116 5.37937927 35.6567688 C5.44489466 32.39624945 5.50376902 29.13564794 5.5625 25.875 C5.60568332 23.66796017 5.64929755 21.46092872 5.69335938 19.25390625 C5.80057805 13.83602499 5.90234074 8.41806154 6 3 C4.02 3 2.04 3 0 3 C0 2.01 0 1.02 0 0 Z " fill="#FCF0F4" transform="translate(560,802)"/>
<path d="M0 0 C0.66 0 1.32 0 2 0 C3.33852796 3.62310328 4.66993718 7.24878144 6 10.875 C6.3815625 11.90753906 6.763125 12.94007813 7.15625 14.00390625 C7.5171875 14.99003906 7.878125 15.97617187 8.25 16.9921875 C8.58515625 17.90339355 8.9203125 18.81459961 9.265625 19.75341797 C10 22 10 22 10 24 C4.06 24 -1.88 24 -8 24 C-5.90481079 15.72951627 -3.1829131 7.91325036 0 0 Z " fill="#722A49" transform="translate(828,813)"/>
<path d="M0 0 C2.19374429 2.72276243 3.62950397 5.19517171 4.82421875 8.4765625 C5.13037109 9.311875 5.43652344 10.1471875 5.75195312 11.0078125 C6.06068359 11.87148438 6.36941406 12.73515625 6.6875 13.625 C7.00783203 14.49640625 7.32816406 15.3678125 7.65820312 16.265625 C10 22.71680104 10 22.71680104 10 25 C4.06 25 -1.88 25 -8 25 C-7.32099038 20.92594228 -6.77170341 17.97579451 -5.37109375 14.2578125 C-5.05849609 13.41992188 -4.74589844 12.58203125 -4.42382812 11.71875 C-4.09833984 10.8628125 -3.77285156 10.006875 -3.4375 9.125 C-3.10814453 8.24585938 -2.77878906 7.36671875 -2.43945312 6.4609375 C-1.63113386 4.30541947 -0.81787706 2.15190559 0 0 Z " fill="#722A49" transform="translate(719,812)"/>
<path d="M0 0 C0.66 0 1.32 0 2 0 C3.33852796 3.62310328 4.66993718 7.24878144 6 10.875 C6.3815625 11.90753906 6.763125 12.94007813 7.15625 14.00390625 C7.5171875 14.99003906 7.878125 15.97617187 8.25 16.9921875 C8.58515625 17.90339355 8.9203125 18.81459961 9.265625 19.75341797 C10 22 10 22 10 24 C4.06 24 -1.88 24 -8 24 C-5.90481079 15.72951627 -3.1829131 7.91325036 0 0 Z " fill="#722A49" transform="translate(484,813)"/>
</svg>
